HIERARCHY
ROOT Hips
{
	OFFSET 0.000000 89.005402 0.000000
	CHANNELS 6 Xposition Yposition Zposition Xrotation Yrotation Zrotation
	JOINT Spine
	{
		OFFSET 0.116900 10.681000 0.373400
		CHANNELS 3 Xrotation Yrotation Zrotation
		JOINT Spine1
		{
			OFFSET 0.000000 13.840401 0.053500
			CHANNELS 3 Xrotation Yrotation Zrotation
			JOINT Spine2
			{
				OFFSET 0.000000 14.712700 -0.366200
				CHANNELS 3 Xrotation Yrotation Zrotation
				JOINT Neck
				{
					OFFSET 0.000000 35.415497 -3.314200
					CHANNELS 3 Xrotation Yrotation Zrotation
					JOINT Head
					{
						OFFSET 0.000000 16.899200 1.218300
						CHANNELS 3 Xrotation Yrotation Zrotation
						JOINT HeadTop_End
						{
							OFFSET 0.000000 22.206207 2.192500
							CHANNELS 3 Xrotation Yrotation Zrotation
							End Site
							{
								OFFSET 0.000000 22.314178 0.000000
							}
						}
					}
				}
				JOINT LeftShoulder
				{
					OFFSET 12.896400 26.716293 -4.548400
					CHANNELS 3 Xrotation Yrotation Zrotation
					JOINT LeftArm
					{
						OFFSET 19.027000 -4.857010 -1.718400
						CHANNELS 3 Xrotation Yrotation Zrotation
						JOINT LeftForeArm
						{
							OFFSET 24.179897 0.000000 0.000000
							CHANNELS 3 Xrotation Yrotation Zrotation
							JOINT LeftHand
							{
								OFFSET 27.156403 0.000000 0.000000
								CHANNELS 3 Xrotation Yrotation Zrotation
								JOINT LeftHandIndex1
								{
									OFFSET 16.441200 0.000000 0.000000
									CHANNELS 3 Xrotation Yrotation Zrotation
									JOINT LeftHandIndex2
									{
										OFFSET 4.821899 0.000000 0.000000
										CHANNELS 3 Xrotation Yrotation Zrotation
										JOINT LeftHandIndex3
										{
											OFFSET 6.386497 0.000000 0.000000
											CHANNELS 3 Xrotation Yrotation Zrotation
											JOINT LeftHandIndex4
											{
												OFFSET 5.188988 0.000000 0.000000
												CHANNELS 3 Xrotation Yrotation Zrotation
												End Site
												{
													OFFSET -0.178703 5.185913 0.000177
												}
											}
										}
									}
								}
								JOINT LeftHandThumb1
								{
									OFFSET 6.534897 -5.032593 5.900300
									CHANNELS 3 Xrotation Yrotation Zrotation
									JOINT LeftHandThumb2
									{
										OFFSET 3.818176 -2.204422 2.204423
										CHANNELS 3 Xrotation Yrotation Zrotation
										JOINT LeftHandThumb3
										{
											OFFSET 3.252098 -1.877594 1.877601
											CHANNELS 3 Xrotation Yrotation Zrotation
											JOINT LeftHandThumb4
											{
												OFFSET 5.251778 -3.032120 3.032117
												CHANNELS 3 Xrotation Yrotation Zrotation
												End Site
												{
													OFFSET 0.000023 6.780014 0.000000
												}
											}
										}
									}
								}
							}
						}
					}
				}
				JOINT RightShoulder
				{
					OFFSET -12.896300 26.716293 -4.548400
					CHANNELS 3 Xrotation Yrotation Zrotation
					JOINT RightArm
					{
						OFFSET -19.027000 -4.857010 -1.718400
						CHANNELS 3 Xrotation Yrotation Zrotation
						JOINT RightForeArm
						{
							OFFSET -24.179897 0.000000 0.000000
							CHANNELS 3 Xrotation Yrotation Zrotation
							JOINT RightHand
							{
								OFFSET -27.156403 0.000000 0.000000
								CHANNELS 3 Xrotation Yrotation Zrotation
								JOINT RightHandThumb1
								{
									OFFSET -6.591202 -4.852203 5.988100
									CHANNELS 3 Xrotation Yrotation Zrotation
									JOINT RightHandThumb2
									{
										OFFSET -3.818176 -2.204422 2.204423
										CHANNELS 3 Xrotation Yrotation Zrotation
										JOINT RightHandThumb3
										{
											OFFSET -3.252098 -1.877594 1.877601
											CHANNELS 3 Xrotation Yrotation Zrotation
											JOINT RightHandThumb4
											{
												OFFSET -5.251778 -3.032120 3.032117
												CHANNELS 3 Xrotation Yrotation Zrotation
												End Site
												{
													OFFSET -0.000023 6.780014 0.000000
												}
											}
										}
									}
								}
								JOINT RightHandIndex1
								{
									OFFSET -16.029404 0.000000 0.000000
									CHANNELS 3 Xrotation Yrotation Zrotation
									JOINT RightHandIndex2
									{
										OFFSET -5.213303 0.000000 0.000000
										CHANNELS 3 Xrotation Yrotation Zrotation
										JOINT RightHandIndex3
										{
											OFFSET -6.386528 0.000000 0.000000
											CHANNELS 3 Xrotation Yrotation Zrotation
											JOINT RightHandIndex4
											{
												OFFSET -5.189026 0.000000 0.000000
												CHANNELS 3 Xrotation Yrotation Zrotation
												End Site
												{
													OFFSET 0.236702 5.183624 0.001972
												}
											}
										}
									}
								}
							}
						}
					}
				}
			}
		}
	}
	JOINT LeftUpLeg
	{
		OFFSET 14.073000 -7.904099 -1.463000
		CHANNELS 3 Xrotation Yrotation Zrotation
		JOINT LeftLeg
		{
			OFFSET -0.109806 -34.073280 4.093200
			CHANNELS 3 Xrotation Yrotation Zrotation
			JOINT LeftFoot
			{
				OFFSET 0.109806 -29.899420 -6.319000
				CHANNELS 3 Xrotation Yrotation Zrotation
				JOINT LeftToeBase
				{
					OFFSET 1.551100 -14.988700 20.535801
					CHANNELS 3 Xrotation Yrotation Zrotation
					JOINT LeftToe_End
					{
						OFFSET 0.221200 0.570800 13.248301
						CHANNELS 3 Xrotation Yrotation Zrotation
						End Site
						{
							OFFSET 0.000000 13.262435 0.000000
						}
					}
				}
			}
		}
	}
	JOINT RightUpLeg
	{
		OFFSET -13.839300 -7.904099 -1.463000
		CHANNELS 3 Xrotation Yrotation Zrotation
		JOINT RightLeg
		{
			OFFSET 0.109694 -34.073219 4.093300
			CHANNELS 3 Xrotation Yrotation Zrotation
			JOINT RightFoot
			{
				OFFSET -0.109694 -29.899384 -6.319200
				CHANNELS 3 Xrotation Yrotation Zrotation
				JOINT RightToeBase
				{
					OFFSET -1.551100 -14.988700 20.535801
					CHANNELS 3 Xrotation Yrotation Zrotation
					JOINT RightToe_End
					{
						OFFSET -0.221200 0.570900 13.248299
						CHANNELS 3 Xrotation Yrotation Zrotation
						End Site
						{
							OFFSET 0.000000 13.262440 0.000000
						}
					}
				}
			}
		}
	}
}
MOTION
Frames: 4
Frame Time: 0.033333
1.099118 79.654343 2.304665 5.323725 -6.825686 -1.255765 9.158267 3.414359 5.169187 6.475188 1.245030 1.057193 6.471317 1.208987 1.096398 2.133584 -0.614929 -1.384966 -3.638042 -2.727635 0.126233 -0.000001 0.000000 0.000000 1.722798 -9.915064 -14.938939 -8.223713 8.871162 -69.738444 -0.000009 -65.715087 -0.000012 13.812951 3.247841 3.605244 0.627449 4.865864 -25.301806 0.596890 2.578225 -26.066032 0.209951 1.555812 -15.369520 0.000001 0.000000 0.000001 -6.000709 -6.126814 4.616744 7.611089 24.884964 2.404822 -4.383180 25.960683 19.454332 -0.000000 0.000000 0.000001 4.829975 17.857977 5.566082 1.191773 -7.170845 66.289137 0.000011 56.565707 -0.000027 11.551349 9.546665 1.170285 -7.540276 -3.885179 -4.751876 7.955436 -28.077799 -3.121249 -4.006998 -18.468406 -17.390024 0.000001 -0.000000 -0.000001 0.077568 -1.078485 14.292202 0.320872 -1.700398 21.371522 0.152974 -1.185052 14.710390 -0.000001 -0.000002 -0.000000 -37.961662 0.921292 17.196278 68.771706 10.157586 -0.547042 -0.777951 13.474751 -20.105999 -32.275113 -0.000001 0.000000 -0.000000 -0.000001 -0.000000 -30.846640 -6.293274 5.592047 45.528289 7.911060 -1.498578 -20.713711 3.616425 -6.942935 7.159280 0.000000 0.000002 -0.000000 -0.000000 0.000000 
2.351194 80.911949 2.232162 5.693609 -8.534833 -0.338458 8.927920 3.500122 5.124543 6.327996 1.422777 1.016070 6.314188 1.187670 1.028363 2.072276 -1.271290 -1.182547 -2.767591 -11.674673 3.417105 -0.000002 0.000001 -0.000001 2.575256 -10.291973 -9.867258 -2.457993 9.974461 -65.961029 0.000016 -71.013579 0.000014 12.276492 4.030954 4.703914 1.464647 4.967813 -28.965657 0.995420 3.268518 -33.868121 0.423419 2.188583 -21.896355 0.000003 -0.000003 -0.000004 -5.989692 -5.375184 4.008914 7.611087 24.884963 2.404822 -4.383178 25.960680 19.454330 -0.000000 -0.000000 0.000000 5.541121 18.173972 1.515760 1.235791 0.699752 71.238012 -0.000011 41.142102 0.000009 10.803520 10.191752 -3.127005 -7.540280 -3.885179 -4.751877 7.955432 -28.077798 -3.121247 -4.006996 -18.468410 -17.390022 -0.000004 -0.000001 -0.000001 0.157810 -1.356873 17.851490 0.524718 -2.149447 27.434464 0.275528 -1.579675 19.787371 0.000000 -0.000003 -0.000001 -36.917128 4.457756 16.095645 65.582090 10.300471 -0.573520 -0.341944 13.501944 -18.179197 -32.275147 -0.000015 -0.000007 0.000001 0.000002 -0.000001 -30.117651 -6.275869 3.433303 41.781042 7.906803 -1.343344 -18.123709 5.424447 -5.369840 4.876755 0.000000 -0.000001 -0.000000 -0.000000 0.000000 
3.712867 83.020767 2.026772 6.323168 -12.961949 0.833500 8.394202 3.650083 4.924453 6.005209 1.662683 0.927195 6.017061 1.139727 0.875373 1.921524 -1.725039 -1.036640 -2.353643 -18.713699 6.096474 -0.000003 0.000001 0.000000 4.293418 -10.437087 -1.996888 6.571340 12.825830 -62.812312 -0.000107 -85.512022 -0.000135 8.451517 2.343019 6.580240 3.315521 4.847367 -37.320307 2.274793 4.633907 -52.273927 1.223689 3.584727 -37.685695 -0.000001 0.000004 -0.000000 -5.951278 -3.493205 2.525586 7.611089 24.884963 2.404819 -4.383178 25.960678 19.454336 -0.000000 0.000001 -0.000001 6.558078 18.540026 -3.328798 12.643796 1.852817 75.106973 0.000002 46.299701 -0.000008 9.768355 11.024387 -11.443500 -7.540284 -3.885185 -4.751876 7.955433 -28.077796 -3.121249 -4.007000 -18.468405 -17.390015 0.000001 -0.000002 -0.000001 0.403825 -1.968567 25.955880 1.182683 -3.103072 41.719499 0.711439 -2.475913 32.058934 0.000000 -0.000000 0.000000 -34.431691 10.444991 15.649942 59.751130 10.259144 -0.670677 0.863083 14.610237 -16.238879 -32.275123 0.000001 0.000001 0.000000 0.000001 -0.000000 -28.706769 -7.950836 1.074444 34.817289 8.045928 -1.070125 -14.221974 10.881812 -3.549988 1.355092 0.000001 0.000004 -0.000000 -0.000000 0.000000 
4.933287 84.880089 1.777780 7.250479 -19.259050 2.341250 7.759795 3.763079 4.574760 5.715635 1.850697 0.821370 5.777167 1.071433 0.750344 1.607927 -2.012696 -0.898282 -2.623715 -23.166033 8.075864 -0.000000 0.000002 -0.000001 5.987288 -10.121376 4.908709 13.055528 13.999999 -58.983301 -0.000043 -103.512063 -0.000038 3.437129 -0.905665 7.912025 5.216859 4.156559 -46.775854 4.300978 5.642679 -74.611969 2.733381 4.953707 -57.757500 -0.000002 0.000001 0.000001 -5.875169 -0.964274 0.610627 7.611091 24.884964 2.404822 -4.383173 25.960680 19.454334 -0.000000 0.000003 -0.000000 7.493902 18.458704 -7.858799 27.184904 -1.106041 76.981997 -0.000020 62.987827 0.000034 9.184607 10.120728 -17.584375 -7.540281 -3.885184 -4.751876 7.955434 -28.077799 -3.121250 -4.006997 -18.468406 -17.390020 0.000000 0.000000 0.000004 0.783283 -2.611258 35.139312 2.262456 -3.995487 59.028237 1.520704 -3.444366 47.633080 0.000001 -0.000000 -0.000000 -31.811620 17.631305 15.586181 53.912838 9.467395 -0.781640 1.842477 16.544385 -14.812799 -32.275123 0.000000 -0.000003 0.000000 0.000000 -0.000000 -27.982235 -10.907065 -1.365151 27.616782 8.817735 -0.298568 -8.605285 17.003426 -1.251591 1.742088 0.000002 0.000000 0.000000 0.000000 0.000000 
